<svg width="47" height="49" xmlns="http://www.w3.org/2000/svg" xmlns:xlink="http://www.w3.org/1999/xlink" overflow="hidden"><defs><clipPath id="clip0"><rect x="696" y="195" width="47" height="49"/></clipPath></defs><g clip-path="url(#clip0)" transform="translate(-696 -195)"><path d="M720.711 230.079 728.579 230.079 728.579 221.844 733.421 221.844 733.421 230.079 741.289 230.079 741.289 234.921 733.421 234.921 733.421 243.156 728.579 243.156 728.579 234.921 720.711 234.921Z" fill="#59E081" fill-rule="evenodd"/><path d="M732.059 199.958 739.722 207.621 713.206 234.138 705.542 226.474Z" stroke="#59E081" stroke-width="3" stroke-miterlimit="8" fill="none" fill-rule="evenodd"/><path d="M701.715 238.027 698.533 241.209" stroke="#59E081" stroke-width="3" stroke-miterlimit="8" fill="none" fill-rule="evenodd"/><path d="M705.162 226.625 701.715 238.027" stroke="#59E081" stroke-width="3" stroke-miterlimit="8" fill="none" fill-rule="evenodd"/><path d="M0 0 5.62509 10.4999" stroke="#59E081" stroke-width="3" stroke-miterlimit="8" fill="none" fill-rule="evenodd" transform="matrix(-0.707107 -0.707107 -0.707107 0.707107 713.029 234.492)"/><path d="M0 0 12.9999 12.9999" stroke="#59E081" stroke-width="3" stroke-miterlimit="8" fill="none" fill-rule="evenodd" transform="matrix(-1 0 0 1 729.5 197.5)"/><path d="M728.5 199.5 729.92 201.017" stroke="#59E081" stroke-width="3" stroke-miterlimit="8" fill="none" fill-rule="evenodd"/></g></svg>
