<svg width="68" height="68" xmlns="http://www.w3.org/2000/svg" xmlns:xlink="http://www.w3.org/1999/xlink" overflow="hidden"><defs><clipPath id="clip0"><rect x="663" y="294" width="68" height="68"/></clipPath></defs><g clip-path="url(#clip0)" transform="translate(-663 -294)"><path d="M687.339 315.803 709.728 338.192 706.192 341.728 683.803 319.339ZM685.571 317.571 683.803 326.41 678.5 310.5 694.41 315.803ZM707.96 339.96 709.728 331.121 715.031 347.031 699.121 341.728Z" fill="#59E081"/><path d="M705.486 329.585C713.134 325.297 722.922 327.827 727.348 335.236 731.774 342.645 729.163 352.128 721.514 356.415 713.866 360.703 704.078 358.173 699.652 350.764 697.336 346.888 696.864 342.23 698.358 337.992" stroke="#59E081" stroke-width="3" stroke-miterlimit="8" fill="none" fill-rule="evenodd"/><path d="M687.457 325.473C681.421 328.097 674.309 325.534 671.572 319.75 668.834 313.966 671.508 307.151 677.543 304.527 683.579 301.904 690.691 304.466 693.428 310.25 694.532 312.582 694.792 315.2 694.167 317.689" stroke="#59E081" stroke-width="3" stroke-miterlimit="8" fill="none" fill-rule="evenodd"/></g></svg>
