<svg width="83" height="83" xmlns="http://www.w3.org/2000/svg" xmlns:xlink="http://www.w3.org/1999/xlink" overflow="hidden"><defs><clipPath id="clip0"><rect x="301" y="280" width="83" height="83"/></clipPath></defs><g clip-path="url(#clip0)" transform="translate(-301 -280)"><path d="M347.339 284.762C350.114 281.987 354.612 281.987 357.387 284.762L378.982 306.357C381.757 309.132 381.757 313.63 378.982 316.405L337.411 357.976C334.636 360.75 330.138 360.75 327.363 357.976L305.768 336.381C302.993 333.606 302.993 329.107 305.768 326.333Z" stroke="#59E081" stroke-width="4" stroke-miterlimit="8" fill="none" fill-rule="evenodd"/><path d="M356.508 283.883 379.86 307.236C382.15 309.525 382.15 313.237 379.86 315.526L347.236 348.15 315.593 316.508 348.218 283.883C350.507 281.594 354.219 281.594 356.508 283.883Z" fill="#59E081" fill-rule="evenodd"/><path d="M332.5 360.5 359.5 360.5" stroke="#59E081" stroke-width="3" stroke-miterlimit="8" fill="none" fill-rule="evenodd"/></g></svg>
