<svg width="59" height="56" xmlns="http://www.w3.org/2000/svg" xmlns:xlink="http://www.w3.org/1999/xlink" overflow="hidden"><defs><clipPath id="clip0"><rect x="772" y="293" width="59" height="56"/></clipPath></defs><g clip-path="url(#clip0)" transform="translate(-772 -293)"><path d="M775.794 327.883 774.494 327.944C774.953 337.642 782.821 345.34 792.526 345.588L792.559 344.287C783.536 344.056 776.221 336.899 775.794 327.883ZM793 306C804.598 306 814 315.402 814 327 814 338.598 804.598 348 793 348 781.402 348 772 338.598 772 327 772 315.402 781.402 306 793 306Z" fill="#59E081" fill-rule="evenodd"/><path d="M802 318C804.146 314.516 806.293 311.032 808.439 309.226 810.586 307.419 813.119 308.366 814.879 307.161 816.639 305.957 817.819 303.978 819 302" stroke="#59E081" stroke-width="4" stroke-miterlimit="8" fill="none" fill-rule="evenodd"/><path d="M811 300.639 817.8 299.424 821 293 824.2 299.424 831 300.639 826.178 305.825 827.18 313 821 309.78 814.82 313 815.822 305.825Z" fill="#59E081" fill-rule="evenodd"/></g></svg>
