<svg width="63" height="68" xmlns="http://www.w3.org/2000/svg" xmlns:xlink="http://www.w3.org/1999/xlink" overflow="hidden"><defs><clipPath id="clip0"><rect x="568" y="287" width="63" height="68"/></clipPath></defs><g clip-path="url(#clip0)" transform="translate(-568 -287)"><path d="M577 314C577 304.611 584.611 297 594 297 603.389 297 611 304.611 611 314 611 323.389 603.389 331 594 331 584.611 331 577 323.389 577 314Z" stroke="#59E081" stroke-width="4" stroke-miterlimit="8" fill="none" fill-rule="evenodd"/><path d="M569.5 314.5 619.5 314.5" stroke="#59E081" stroke-width="3" stroke-miterlimit="8" fill="none" fill-rule="evenodd"/><path d="M594.5 339.5 594.5 289.5" stroke="#59E081" stroke-width="3" stroke-miterlimit="8" fill="none" fill-rule="evenodd"/><path d="M597 331C597 324.925 601.925 320 608 320 614.075 320 619 324.925 619 331 619 337.075 614.075 342 608 342 601.925 342 597 337.075 597 331Z" stroke="#59E081" stroke-width="2" stroke-miterlimit="8" fill="none" fill-rule="evenodd"/><path d="M608 342.5C608 336.701 612.701 332 618.5 332 624.299 332 629 336.701 629 342.5 629 348.299 624.299 353 618.5 353 612.701 353 608 348.299 608 342.5Z" stroke="#59E081" stroke-width="2" stroke-miterlimit="8" fill="none" fill-rule="evenodd"/></g></svg>
